HIERARCHY
ROOT root
{
	OFFSET 0.000000 0.000000 0.000000
	CHANNELS 6 Xposition Yposition Zposition Zrotation Yrotation Xrotation
	JOINT lhip
	{
		OFFSET 0.058581 -0.082280 -0.017664
		CHANNELS 3 Zrotation Yrotation Xrotation
		JOINT lknee
		{
			OFFSET 0.043451 -0.386469 0.008037
			CHANNELS 3 Zrotation Yrotation Xrotation
			JOINT lankle
			{
				OFFSET -0.014790 -0.426874 -0.037428
				CHANNELS 3 Zrotation Yrotation Xrotation
				JOINT ltoe
				{
					OFFSET 0.041054 -0.060286 0.122042
					CHANNELS 3 Zrotation Yrotation Xrotation
					End Site
					{
						OFFSET 0.000000 0.000000 0.000000
					}
				}
			}
		}
	}
	JOINT rhip
	{
		OFFSET -0.060310 -0.090513 -0.013543
		CHANNELS 3 Zrotation Yrotation Xrotation
		JOINT rknee
		{
			OFFSET -0.043257 -0.383688 -0.004843
			CHANNELS 3 Zrotation Yrotation Xrotation
			JOINT rankle
			{
				OFFSET 0.019056 -0.420046 -0.034562
				CHANNELS 3 Zrotation Yrotation Xrotation
				JOINT rtoe
				{
					OFFSET -0.034840 -0.062106 0.130323
					CHANNELS 3 Zrotation Yrotation Xrotation
					End Site
					{
						OFFSET 0.000000 0.000000 0.000000
					}
				}
			}
		}
	}
	JOINT lowerback
	{
		OFFSET 0.004439 0.124404 -0.038385
		CHANNELS 3 Zrotation Yrotation Xrotation
		JOINT upperback
		{
			OFFSET 0.004488 0.137956 0.026820
			CHANNELS 3 Zrotation Yrotation Xrotation
			JOINT chest
			{
				OFFSET -0.002265 0.056032 0.002855
				CHANNELS 3 Zrotation Yrotation Xrotation
				JOINT lowerneck
				{
					OFFSET -0.013390 0.211636 -0.033468
					CHANNELS 3 Zrotation Yrotation Xrotation
					JOINT upperneck
					{
						OFFSET 0.010113 0.088937 0.050410
						CHANNELS 3 Zrotation Yrotation Xrotation
						End Site
						{
							OFFSET 0.000000 0.000000 0.000000
						}
					}
				}
				JOINT lclavicle
				{
					OFFSET 0.071702 0.114000 -0.018898
					CHANNELS 3 Zrotation Yrotation Xrotation
					JOINT lshoulder
					{
						OFFSET 0.122921 0.045205 -0.019046
						CHANNELS 3 Zrotation Yrotation Xrotation
						JOINT lelbow
						{
							OFFSET 0.255332 -0.015649 -0.022946
							CHANNELS 3 Zrotation Yrotation Xrotation
							JOINT lwrist
							{
								OFFSET 0.265709 0.012698 -0.007375
								CHANNELS 3 Zrotation Yrotation Xrotation
								End Site
								{
									OFFSET 0.000000 0.000000 0.000000
								}
							}
						}
					}
				}
				JOINT rclavicle
				{
					OFFSET -0.082954 0.112472 -0.023707
					CHANNELS 3 Zrotation Yrotation Xrotation
					JOINT rshoulder
					{
						OFFSET -0.113228 0.046853 -0.008472
						CHANNELS 3 Zrotation Yrotation Xrotation
						JOINT relbow
						{
							OFFSET -0.260127 -0.014369 -0.031269
							CHANNELS 3 Zrotation Yrotation Xrotation
							JOINT rwrist
							{
								OFFSET -0.269108 0.006794 -0.006027
								CHANNELS 3 Zrotation Yrotation Xrotation
								End Site
								{
									OFFSET 0.000000 0.000000 0.000000
								}
							}
						}
					}
				}
			}
		}
	}
}
MOTION
Frames: 16
Frame Time: 0.033333
-0.872040 0.304247 1.019582 95.762913 0.120115 89.582037 0.168302 -1.339021 5.783787 -7.100646 -11.831808 42.086510 2.430381 8.733200 6.448646 0.000000 -0.000000 0.000000 0.961728 0.453915 -16.935245 1.699347 -6.905808 15.475287 -0.677326 -8.894091 -1.446224 0.000000 -0.000000 0.000000 0.413274 -3.804251 10.017896 2.506438 -2.279626 -0.121177 -0.206110 -3.496422 3.395884 2.672510 3.862317 -3.236736 -0.169196 -0.376008 9.726881 -25.991344 7.861960 1.127144 -58.149950 -8.002947 10.806900 7.826350 -27.903080 12.371677 -7.330763 -0.954316 -1.380342 31.623800 -5.043828 -2.152008 57.026058 3.857060 10.228223 -15.084628 7.543191 -11.971611 6.865503 -0.099831 -7.627295 
-0.842498 0.300187 1.021645 95.486780 -0.164524 88.599660 0.955369 -1.043311 2.868052 -8.712845 -8.956717 46.963622 -0.147282 6.729067 3.103729 0.000000 -0.000000 0.000000 1.544280 -0.164677 -13.929175 1.385218 -6.145411 15.776360 -0.957282 -8.440388 -3.319117 0.000000 -0.000000 0.000000 -0.131571 -2.644978 10.339770 2.390618 -2.330345 -0.330685 -0.284690 -3.183679 3.427274 2.838958 3.738065 -3.020209 -0.029712 -0.998842 10.330539 -26.477616 7.111847 0.678257 -57.183327 -8.890428 10.517843 7.919284 -29.636823 11.923214 -6.652588 -1.371358 -0.843892 31.959864 -4.292607 -2.382222 57.184420 4.434140 10.326176 -14.920342 8.135374 -11.251353 6.996933 0.148772 -7.154002 
-0.814826 0.296919 1.023239 94.469262 -0.777824 87.730969 1.167454 -0.883002 0.095529 -7.658313 -5.145009 48.942458 1.473300 8.076784 -0.967761 0.000000 -0.000000 0.000000 1.611214 -0.795516 -11.358399 1.142502 -5.319775 16.304071 -0.757397 -7.917988 -5.180276 0.000000 -0.000000 0.000000 -1.023374 -1.283823 10.677724 2.025281 -1.910581 -1.005164 -0.348978 -2.561230 3.545717 3.087035 3.759916 -2.319886 0.106747 -1.307671 11.698941 -26.598139 6.850579 0.367580 -56.955848 -10.064391 10.069013 8.690514 -31.829312 10.348614 -5.626443 -1.543095 -1.106969 32.246813 -3.536025 -2.292401 57.716110 5.408728 10.635179 -15.365919 7.897036 -11.425711 6.747357 0.272048 -6.597839 
-0.787895 0.294619 1.024204 93.065159 -1.456611 87.030855 0.987933 -1.104166 -2.512386 -7.233150 -2.404989 48.841418 2.472361 8.769251 -4.809077 0.000000 -0.000000 0.000000 1.413180 -1.117033 -8.823988 1.043465 -4.154182 16.495816 -0.683998 -7.211606 -6.668637 0.000000 -0.000000 0.000000 -1.780570 -0.111439 10.681953 1.549833 -1.454999 -1.616419 -0.463068 -1.769309 3.692915 3.391816 3.705427 -2.026148 0.145382 -1.724515 12.772641 -26.685241 6.802483 -0.076582 -57.131815 -11.030601 9.814221 9.851308 -34.287422 7.937995 -4.275119 -2.155510 -2.560777 32.293309 -2.837941 -2.033865 58.235300 6.330868 11.061361 -15.992838 8.183290 -11.720291 6.290661 0.556783 -6.580687 
-0.762370 0.293410 1.024586 91.920906 -2.005576 86.228507 0.684226 -2.006579 -4.674730 -7.116671 -0.511940 46.798579 2.808344 8.879535 -7.803627 0.000000 -0.000000 0.000000 1.213570 -1.331425 -6.132592 0.894978 -2.876566 16.557076 -0.560177 -6.835457 -7.928564 0.000000 -0.000000 0.000000 -2.030925 0.835218 11.066051 1.071358 -1.310702 -2.120276 -0.727854 -1.236948 3.728682 3.671192 3.336455 -1.779340 0.124812 -2.301411 13.677274 -26.914909 6.808196 -0.322041 -57.234366 -11.850476 9.536951 11.020820 -37.231839 5.222140 -3.016785 -2.714466 -4.841811 32.022950 -2.171910 -2.136966 58.630455 7.189379 11.598248 -16.344650 8.864184 -11.719663 5.751155 0.973563 -6.529010 
-0.738231 0.292532 1.024348 90.837393 -2.508728 85.705956 0.268749 -3.080899 -7.083155 -7.385056 0.543907 43.378195 2.947703 9.340714 -10.565742 0.000000 -0.000000 0.000000 0.943869 -1.596555 -3.972469 0.801748 -1.568631 16.843728 -0.102405 -6.757824 -9.370052 0.000000 -0.000000 0.000000 -2.221185 1.638973 11.001554 0.718952 -1.352017 -2.424459 -1.041376 -0.934085 3.968057 3.839008 3.612825 -2.078092 -0.101377 -2.528225 14.609116 -27.152042 6.880061 -0.632942 -57.223389 -12.563549 9.642901 11.975256 -40.100827 2.973722 -1.888602 -3.030432 -6.604654 31.890647 -1.543502 -2.229215 58.552392 8.517928 12.174930 -16.578308 9.547870 -11.972819 5.569538 1.320951 -6.282232 
-0.715159 0.292110 1.023632 89.887782 -2.849829 85.095320 -0.196579 -3.775865 -9.025746 -6.817995 1.068794 38.774094 3.062211 9.426136 -11.881612 0.000000 -0.000000 0.000000 0.793183 -1.822542 -1.674098 0.563082 -0.568647 16.840521 0.039593 -6.510587 -10.633121 0.000000 -0.000000 0.000000 -2.162732 2.293501 11.340719 0.344479 -1.506769 -2.625788 -1.327842 -0.566021 3.883690 3.877136 4.138972 -1.783072 -0.101368 -2.338170 14.992288 -26.968429 6.732298 -0.721608 -57.399854 -12.935344 10.006150 12.448273 -42.930024 2.190034 -1.350585 -3.010406 -7.344770 31.538780 -1.094560 -2.495225 58.594814 9.331373 12.436724 -17.054688 11.008884 -12.216731 5.683554 1.858683 -6.189260 
-0.693672 0.292158 1.022363 89.170678 -3.019945 84.770981 -0.715103 -4.423529 -11.232677 -5.584022 1.308986 33.957030 3.153477 9.662606 -11.990319 0.000000 -0.000000 0.000000 0.657959 -1.931815 0.236170 0.450768 0.258020 16.775274 0.185093 -6.344102 -11.709939 0.000000 -0.000000 0.000000 -1.941386 2.766071 11.589158 0.056710 -1.696959 -2.871267 -1.527490 -0.407807 3.897402 3.846483 4.823972 -1.880635 -0.410407 -2.210711 15.575685 -26.900381 6.337749 -0.961113 -57.377710 -13.147797 10.565636 12.597199 -45.002394 2.246787 -1.302432 -3.439215 -7.092239 31.179995 -0.554466 -2.563641 58.499770 10.470626 12.645744 -17.539466 12.234587 -12.928255 5.567926 2.665636 -6.242762 
-0.671786 0.291807 1.020715 88.180758 -3.055137 84.593328 -0.918028 -4.864341 -13.103594 -4.741953 1.600293 28.292345 3.282882 10.165339 -11.762979 0.000000 -0.000000 0.000000 0.600398 -2.155876 2.119977 0.368047 1.200297 16.590568 0.142218 -6.058302 -12.819569 0.000000 -0.000000 0.000000 -1.898644 3.373732 11.359359 0.004110 -1.909788 -2.758026 -1.509584 -0.203614 3.917057 3.951001 5.126556 -1.817450 -0.691051 -2.577553 15.952095 -26.739871 5.996386 -0.955193 -57.436966 -13.177472 11.161501 12.220298 -46.110397 2.798907 -0.975982 -3.597180 -6.757204 30.998531 0.058891 -2.617110 58.169248 11.535040 12.747392 -18.163132 13.201825 -13.381631 5.617626 3.076549 -6.170742 
-0.651729 0.291507 1.018587 87.090867 -3.010011 84.793447 -0.800140 -5.419004 -14.887320 -4.377235 1.607199 22.032271 2.537773 9.877393 -10.652486 0.000000 -0.000000 0.000000 0.592921 -2.213682 3.059706 0.391178 2.100361 17.095141 0.210387 -5.846541 -13.818901 0.000000 -0.000000 0.000000 -1.968018 3.970921 11.240473 0.036359 -1.909244 -2.818740 -1.443994 -0.124207 3.871692 4.499645 5.301052 -2.361658 -0.784732 -3.461037 16.320775 -26.533404 5.573018 -1.143900 -57.544949 -12.856638 12.010168 12.094971 -46.816312 3.420196 -1.113511 -3.958285 -6.129172 30.854385 0.557839 -2.794968 58.065713 12.725702 12.819329 -18.897029 13.949549 -14.178533 5.484815 3.697847 -6.186975 
-0.630026 0.291242 1.016260 86.014431 -2.997031 85.042190 -0.807111 -5.580972 -15.788796 -4.111170 0.553424 14.929089 1.745512 8.979842 -9.144709 0.000000 -0.000000 0.000000 0.499890 -2.341966 4.109221 0.221684 2.819200 17.582390 0.526455 -5.288429 -14.935545 0.000000 -0.000000 0.000000 -2.126856 4.486489 10.807537 0.098092 -1.984753 -2.618901 -1.338920 -0.004143 3.645466 4.768289 6.193824 -2.312944 -1.202444 -3.807377 16.651026 -26.535525 5.564893 -1.347068 -57.382632 -12.667230 12.517717 11.301228 -46.622257 4.348869 -0.852010 -4.618475 -4.569714 30.768877 0.915735 -2.957961 57.990283 13.716902 12.963969 -19.477170 14.776240 -14.700099 5.454674 4.344536 -6.156788 
-0.608869 0.291761 1.013393 84.820187 -2.832781 85.608540 -0.798540 -5.214788 -16.939130 -3.375359 -0.331025 8.187262 0.636038 8.458391 -9.074833 0.000000 -0.000000 0.000000 0.371725 -2.523033 4.798123 0.278944 3.571046 17.972904 0.867783 -4.773370 -15.868907 0.000000 -0.000000 0.000000 -1.996552 4.623178 10.670546 -0.035675 -1.905849 -3.010913 -1.358121 0.272756 3.307396 4.905153 7.298824 -2.371580 -1.463590 -3.592207 17.056342 -26.296954 5.705720 -1.402759 -57.476356 -11.721863 12.941019 10.636940 -46.112799 5.081616 -0.997982 -4.394135 -4.370157 30.727676 1.247378 -2.928151 58.041132 14.894528 13.065236 -19.869217 15.155862 -15.198046 5.362722 4.868257 -6.216938 
-0.586822 0.292406 1.009936 83.814611 -2.489214 86.197867 -0.638961 -4.599824 -17.899004 -2.582736 -0.355341 2.287342 -2.009111 6.967103 -7.603801 0.000000 -0.000000 0.000000 0.439877 -2.454959 5.778262 0.203538 4.037290 17.783152 1.158562 -4.378925 -16.306432 0.000000 -0.000000 0.000000 -1.672840 4.782215 10.117866 -0.077700 -1.881911 -2.859986 -1.419899 0.401705 3.206788 5.207851 7.789771 -2.625440 -1.568841 -4.042755 16.954764 -26.478907 5.728378 -1.372658 -57.449908 -11.140511 13.027390 10.498404 -44.813711 4.894985 -1.263535 -4.335536 -3.593168 30.646333 1.561353 -3.097528 58.145246 16.171254 13.116618 -20.218072 15.852565 -15.704647 5.327323 5.210647 -6.026386 
-0.564528 0.293433 1.006473 82.674769 -2.171306 86.922251 -0.571144 -3.964072 -19.199517 -2.063846 0.645852 -0.895263 -1.199468 6.807009 -8.184857 0.000000 -0.000000 0.000000 0.220367 -2.731355 6.367293 0.331557 4.629934 18.046137 1.451420 -3.794220 -16.770378 0.000000 -0.000000 0.000000 -1.402024 5.100632 10.065540 -0.148618 -1.696884 -3.357221 -1.459048 0.619132 2.930028 5.436098 7.876346 -2.674440 -1.872120 -4.205354 17.013829 -26.710302 6.055135 -1.486492 -57.514763 -10.416893 12.755535 9.814920 -42.825754 5.480060 -1.667531 -4.144544 -2.547397 30.436838 1.645023 -3.246070 58.408720 16.953527 13.187253 -20.654353 16.402802 -16.054046 5.324492 5.455358 -5.886444 
-0.540315 0.294723 1.003265 81.473717 -1.905952 87.291776 -0.177839 -3.928758 -20.450153 -2.419596 1.653855 -0.022196 -2.517423 6.242608 -6.525855 0.000000 -0.000000 0.000000 -0.111909 -2.795048 7.495932 0.411817 5.370059 18.280000 1.682780 -3.173758 -17.089088 0.000000 -0.000000 0.000000 -1.061930 5.508430 9.944170 -0.242194 -1.605690 -3.221923 -1.661112 0.853916 2.884041 5.657266 8.020334 -3.639647 -1.989144 -4.466452 16.897260 -27.170654 6.399244 -1.982131 -57.366534 -9.538855 12.647059 9.628636 -40.503323 5.583944 -1.828772 -4.151509 -1.531590 30.611830 1.807130 -3.591096 58.309250 17.919071 13.285350 -20.735793 16.850413 -16.538623 5.152679 5.608649 -5.924834 
-0.514699 0.296028 1.000340 80.200395 -1.891078 87.579314 0.146239 -4.469524 -20.939337 -2.845628 2.326952 2.070910 -0.123757 7.589382 -6.623486 0.000000 -0.000000 0.000000 -0.798906 -2.834426 8.561226 0.487794 6.390248 18.863460 2.027170 -2.768370 -17.155893 0.000000 -0.000000 0.000000 -1.354400 6.166596 9.698880 -0.207654 -1.456322 -3.039046 -1.603207 1.132265 2.780339 5.778140 7.745217 -3.526696 -2.011006 -4.278159 16.763718 -27.379699 6.536434 -1.931646 -57.518748 -8.662502 12.236585 9.710731 -38.020831 5.662242 -2.284486 -3.496546 -1.184220 30.749722 2.107565 -3.413787 57.867381 18.568079 13.189798 -21.008415 17.362136 -16.905896 5.056052 5.614064 -5.845483 
